<svg xmlns="http://www.w3.org/2000/svg" width="200" height="200" viewBox="0 0 200 200"><rect width="100%" height="100%" fill="#DDDDDD"/><path fill="#999999" d="M43.845 100.235h3.02q1.11 0 1.93-.27.83-.28 1.38-.8.54-.52.81-1.26t.27-1.65q0-.87-.27-1.58-.27-.7-.81-1.2-.54-.49-1.36-.76-.83-.26-1.95-.26h-3.02zm-4.03-10.9h7.05q2.17 0 3.76.51t2.63 1.43q1.03.91 1.54 2.19.5 1.27.5 2.79 0 1.57-.53 2.88-.52 1.32-1.57 2.26t-2.63 1.47q-1.59.53-3.7.53h-3.02v7.63h-4.03zm21.25 7.23.23 1.74q.72-1.38 1.71-2.17.99-.78 2.34-.78 1.06 0 1.71.46l-.24 2.78q-.08.27-.22.38t-.38.11q-.23 0-.67-.07-.44-.08-.86-.08-.62 0-1.1.18t-.86.52-.67.82q-.3.48-.55 1.09v9.48h-3.71v-15.39h2.18q.57 0 .79.2.23.21.3.73m14.73-1.17q1.71 0 3.12.56 1.4.55 2.4 1.57.99 1.02 1.53 2.49t.54 3.29q0 1.83-.54 3.3-.54 1.46-1.53 2.5-1 1.03-2.4 1.59-1.41.55-3.12.55-1.72 0-3.13-.55-1.41-.56-2.41-1.59-1-1.04-1.54-2.5-.55-1.47-.55-3.3 0-1.82.55-3.29.54-1.47 1.54-2.49t2.41-1.57q1.41-.56 3.13-.56m0 13q1.92 0 2.85-1.29.92-1.29.92-3.77 0-2.5-.92-3.8-.93-1.3-2.85-1.3-1.95 0-2.88 1.31-.94 1.31-.94 3.79 0 2.47.94 3.77.93 1.29 2.88 1.29m20.09-1.93v-6.9q-.63-.76-1.37-1.08-.75-.31-1.6-.31-.84 0-1.52.31-.67.32-1.15.95-.48.64-.74 1.62-.25.99-.25 2.32 0 1.35.22 2.29.21.94.62 1.53.4.59.99.85.58.27 1.3.27 1.16 0 1.97-.48t1.53-1.37m0-17.73h3.7v22.29h-2.26q-.74 0-.93-.67l-.32-1.49q-.93 1.07-2.13 1.73-1.21.65-2.82.65-1.26 0-2.31-.52t-1.8-1.52q-.76-1-1.17-2.47-.42-1.47-.42-3.36 0-1.71.47-3.18.46-1.47 1.33-2.55t2.09-1.69q1.21-.6 2.73-.6 1.29 0 2.2.4.92.4 1.64 1.1zm16.92 6.9h3.7v15.39h-2.26q-.74 0-.93-.67l-.26-1.24q-.94.97-2.08 1.56t-2.69.59q-1.26 0-2.22-.43-.97-.42-1.63-1.21-.66-.77-1-1.85-.34-1.07-.34-2.36v-9.78h3.71v9.78q0 1.41.65 2.18.65.78 1.96.78.96 0 1.8-.43t1.59-1.18zm19.36 1.91-.97 1.35q-.17.21-.33.33-.15.12-.45.12-.29 0-.56-.18-.27-.17-.64-.39-.38-.21-.9-.39-.51-.17-1.28-.17-.97 0-1.71.35-.73.35-1.22 1.01t-.73 1.6-.24 2.13q0 1.22.27 2.18.26.96.75 1.62.5.65 1.2.99.71.34 1.59.34.89 0 1.44-.22.54-.22.92-.48.37-.26.65-.48t.62-.22q.45 0 .68.34l1.06 1.36q-.61.72-1.33 1.2-.72.49-1.49.78-.78.3-1.59.41-.82.12-1.63.12-1.43 0-2.69-.53t-2.2-1.55q-.95-1.02-1.5-2.5-.54-1.47-.54-3.36 0-1.7.49-3.15.48-1.44 1.43-2.5.94-1.06 2.34-1.66 1.39-.6 3.21-.6 1.72 0 3.02.56 1.3.55 2.33 1.59m7.59 13.72q-2.01 0-3.08-1.13t-1.07-3.13v-8.6h-1.58q-.3 0-.51-.19t-.21-.58v-1.48l2.48-.4.78-4.2q.07-.3.28-.46.21-.17.54-.17h1.92v4.85h4.11v2.63h-4.11v8.35q0 .72.35 1.12.36.4.97.4.35 0 .58-.08t.4-.17q.18-.09.31-.17.14-.08.27-.08.17 0 .27.08.11.08.23.25l1.11 1.79q-.81.68-1.86 1.03-1.05.34-2.18.34m12.84-15.87q1.71 0 3.11.56 1.41.55 2.4 1.57 1 1.02 1.54 2.49t.54 3.29q0 1.83-.54 3.3-.54 1.46-1.54 2.5-.99 1.03-2.4 1.59-1.4.55-3.11.55-1.72 0-3.13-.55-1.41-.56-2.41-1.59-1-1.04-1.55-2.5-.54-1.47-.54-3.3 0-1.82.54-3.29.55-1.47 1.55-2.49t2.41-1.57q1.41-.56 3.13-.56m0 13q1.92 0 2.84-1.29.93-1.29.93-3.77 0-2.5-.93-3.8-.92-1.3-2.84-1.3-1.95 0-2.89 1.31-.93 1.31-.93 3.79 0 2.47.93 3.77.94 1.29 2.89 1.29"/></svg>